HIERARCHY
ROOT root
{
	OFFSET 0.000000 0.000000 0.000000
	CHANNELS 6 Xposition Yposition Zposition Zrotation Yrotation Xrotation
	JOINT lhip
	{
		OFFSET 0.058581 -0.082280 -0.017664
		CHANNELS 3 Zrotation Yrotation Xrotation
		JOINT lknee
		{
			OFFSET 0.043451 -0.386469 0.008037
			CHANNELS 3 Zrotation Yrotation Xrotation
			JOINT lankle
			{
				OFFSET -0.014790 -0.426874 -0.037428
				CHANNELS 3 Zrotation Yrotation Xrotation
				JOINT ltoe
				{
					OFFSET 0.041054 -0.060286 0.122042
					CHANNELS 3 Zrotation Yrotation Xrotation
					End Site
					{
						OFFSET 0.000000 0.000000 0.000000
					}
				}
			}
		}
	}
	JOINT rhip
	{
		OFFSET -0.060310 -0.090513 -0.013543
		CHANNELS 3 Zrotation Yrotation Xrotation
		JOINT rknee
		{
			OFFSET -0.043257 -0.383688 -0.004843
			CHANNELS 3 Zrotation Yrotation Xrotation
			JOINT rankle
			{
				OFFSET 0.019056 -0.420046 -0.034562
				CHANNELS 3 Zrotation Yrotation Xrotation
				JOINT rtoe
				{
					OFFSET -0.034840 -0.062106 0.130323
					CHANNELS 3 Zrotation Yrotation Xrotation
					End Site
					{
						OFFSET 0.000000 0.000000 0.000000
					}
				}
			}
		}
	}
	JOINT lowerback
	{
		OFFSET 0.004439 0.124404 -0.038385
		CHANNELS 3 Zrotation Yrotation Xrotation
		JOINT upperback
		{
			OFFSET 0.004488 0.137956 0.026820
			CHANNELS 3 Zrotation Yrotation Xrotation
			JOINT chest
			{
				OFFSET -0.002265 0.056032 0.002855
				CHANNELS 3 Zrotation Yrotation Xrotation
				JOINT lowerneck
				{
					OFFSET -0.013390 0.211636 -0.033468
					CHANNELS 3 Zrotation Yrotation Xrotation
					JOINT upperneck
					{
						OFFSET 0.010113 0.088937 0.050410
						CHANNELS 3 Zrotation Yrotation Xrotation
						End Site
						{
							OFFSET 0.000000 0.000000 0.000000
						}
					}
				}
				JOINT lclavicle
				{
					OFFSET 0.071702 0.114000 -0.018898
					CHANNELS 3 Zrotation Yrotation Xrotation
					JOINT lshoulder
					{
						OFFSET 0.122921 0.045205 -0.019046
						CHANNELS 3 Zrotation Yrotation Xrotation
						JOINT lelbow
						{
							OFFSET 0.255332 -0.015649 -0.022946
							CHANNELS 3 Zrotation Yrotation Xrotation
							JOINT lwrist
							{
								OFFSET 0.265709 0.012698 -0.007375
								CHANNELS 3 Zrotation Yrotation Xrotation
								End Site
								{
									OFFSET 0.000000 0.000000 0.000000
								}
							}
						}
					}
				}
				JOINT rclavicle
				{
					OFFSET -0.082954 0.112472 -0.023707
					CHANNELS 3 Zrotation Yrotation Xrotation
					JOINT rshoulder
					{
						OFFSET -0.113228 0.046853 -0.008472
						CHANNELS 3 Zrotation Yrotation Xrotation
						JOINT relbow
						{
							OFFSET -0.260127 -0.014369 -0.031269
							CHANNELS 3 Zrotation Yrotation Xrotation
							JOINT rwrist
							{
								OFFSET -0.269108 0.006794 -0.006027
								CHANNELS 3 Zrotation Yrotation Xrotation
								End Site
								{
									OFFSET 0.000000 0.000000 0.000000
								}
							}
						}
					}
				}
			}
		}
	}
}
MOTION
Frames: 10
Frame Time: 0.033333
0.007235 0.452092 1.008862 173.287417 -0.220144 85.642685 5.609230 2.190381 6.418741 -5.164329 0.339503 -1.216618 -2.244799 7.201359 -3.907976 0.000000 -0.000000 0.000000 -5.204711 -2.924818 2.397352 2.338134 -1.356052 5.855983 5.363272 -2.126881 -4.955064 0.000000 -0.000000 0.000000 -1.938936 -0.099744 3.369711 1.712294 -2.121595 5.460604 1.429416 1.274500 0.937876 4.340325 15.596888 3.421345 -0.610296 11.664477 -2.999197 -15.898318 -1.820057 0.790983 -54.255446 -17.833306 16.962305 -3.435776 -60.803012 21.415153 -9.529346 -26.455995 -32.598968 14.804665 8.137857 2.492443 57.267516 28.866537 24.908070 4.009750 44.753480 25.725676 15.365457 17.717039 -8.196804 
0.006502 0.451828 1.008462 173.254588 -0.050808 85.656858 5.826746 2.497189 6.289114 -5.276008 -0.120980 -0.965351 -1.940646 7.248720 -4.000698 0.000000 -0.000000 0.000000 -5.055742 -3.010877 2.376046 2.360413 -0.955226 5.905876 5.420470 -2.412825 -5.117907 0.000000 -0.000000 0.000000 -1.808942 -0.168697 3.420119 1.485919 -2.170885 5.099577 1.405045 1.378040 1.247143 3.599548 15.021694 2.195165 -0.463713 11.111955 -3.136155 -15.976607 -2.635800 0.775510 -56.801958 -18.062791 16.681225 -1.969140 -47.324386 22.246091 -11.158790 -24.506637 -27.603904 15.718044 8.573734 3.132376 58.403555 28.007968 23.919560 1.805150 33.513328 24.358438 16.939559 15.918215 -5.118676 
0.006007 0.451993 1.008323 173.122148 0.031600 85.591184 5.914772 2.885799 6.409082 -5.281859 -0.571775 -0.964878 -1.826285 7.317526 -3.989956 0.000000 -0.000000 0.000000 -4.971226 -3.132171 2.417039 2.319025 -0.684090 5.964832 5.457906 -2.435454 -5.245675 0.000000 -0.000000 0.000000 -1.740007 -0.127444 3.788971 1.305343 -2.188793 4.692456 1.383181 1.331454 1.521349 2.768674 14.344050 0.835006 -0.317896 10.560297 -3.432318 -16.593559 -3.057198 0.473156 -59.304824 -18.105854 16.222162 0.163132 -33.088745 20.573131 -11.062157 -22.105117 -23.436285 16.485763 8.374657 3.333853 59.922577 26.882105 22.780963 -0.322543 22.701386 21.773614 17.344971 13.872781 -3.170900 
0.005208 0.452907 1.007901 173.063264 0.204972 85.754197 6.087053 3.246343 6.176907 -5.321388 -0.941607 -0.700317 -1.618325 7.307973 -4.074639 0.000000 -0.000000 0.000000 -4.754205 -3.262762 2.222075 2.204160 -0.348171 6.077271 5.470694 -2.526644 -5.423066 0.000000 -0.000000 0.000000 -1.616171 -0.055554 3.999123 1.076703 -2.470900 4.411895 1.441554 1.216436 1.718217 1.577935 13.157065 -0.907783 0.056193 10.690795 -4.123242 -17.969877 -3.422594 0.338828 -61.955171 -17.598020 14.346530 3.744747 -15.996596 15.654822 -9.641947 -19.797035 -19.521520 17.653105 7.427175 3.677434 60.360577 24.492070 20.407227 -2.373349 13.605117 19.712946 19.139145 11.586650 -0.988460 
0.004700 0.453835 1.007662 172.950152 0.270006 85.777126 6.126447 3.362455 6.249304 -5.322202 -1.107900 -0.721654 -1.680154 7.426172 -4.101799 0.000000 -0.000000 0.000000 -4.723345 -3.308522 2.193737 2.254379 -0.092448 6.129063 5.431503 -2.620359 -5.501826 0.000000 -0.000000 0.000000 -1.552270 -0.063273 4.258105 0.921241 -2.542702 4.349740 1.415155 1.029824 1.796561 1.102898 12.562400 -2.033540 0.176691 10.672102 -4.659983 -19.218979 -2.684022 0.331931 -62.318113 -16.730188 12.553497 5.679982 -9.255431 13.693270 -10.066136 -18.843361 -17.338168 18.549895 6.053279 3.765676 59.755875 22.421094 18.923433 -2.875777 11.654640 19.781309 20.042854 11.042067 -0.052938 
0.004368 0.455357 1.007537 172.899463 0.306016 85.891181 6.153461 3.505104 6.200744 -5.372608 -1.574365 -0.648552 -1.686511 7.673223 -4.198086 0.000000 -0.000000 0.000000 -4.679694 -3.346640 2.205479 2.255038 0.290457 6.030124 5.464091 -3.011501 -5.645664 0.000000 -0.000000 0.000000 -1.584850 -0.089710 4.501164 0.737037 -2.585757 4.256660 1.318141 0.801014 2.050617 0.544690 11.633413 -3.326982 0.253527 10.495016 -5.835275 -20.763905 -0.757917 0.476453 -61.352167 -14.730424 10.411131 6.177204 -5.193980 12.266108 -9.833971 -17.769016 -16.520175 19.830008 3.608410 3.614293 57.941504 18.584014 17.390601 -2.400082 12.636849 19.541712 19.761171 11.022637 -0.685141 
0.004163 0.457180 1.007240 172.764607 0.310011 86.154734 6.143864 3.577416 6.001799 -5.464837 -1.800325 -0.540975 -1.741929 8.122974 -4.361084 0.000000 -0.000000 0.000000 -4.709731 -3.260983 2.021088 2.415527 0.837795 5.978477 5.499813 -3.555639 -5.874186 0.000000 -0.000000 0.000000 -1.653209 -0.157862 4.541576 0.617060 -2.505380 4.168088 1.181838 0.545450 2.122188 0.274238 11.296108 -4.662383 0.234676 10.340289 -6.728606 -22.288691 1.593363 1.041293 -59.126382 -11.561379 8.873926 5.127922 -5.748502 12.173725 -10.298268 -17.929603 -16.532722 21.109767 0.933884 3.790350 55.427335 14.514547 16.099122 -1.074172 15.378152 18.840753 18.945711 11.944391 -3.191859 
0.003937 0.459672 1.007003 172.590790 0.251411 86.287442 5.968970 3.362453 6.154105 -5.403202 -2.018201 -0.760611 -1.864745 8.921348 -4.423123 0.000000 -0.000000 0.000000 -4.782542 -3.243144 1.996620 2.471978 1.482401 5.901331 5.583054 -4.083114 -6.002503 0.000000 -0.000000 0.000000 -1.909519 -0.066859 4.574976 0.596442 -2.460886 4.258262 1.258903 0.267292 2.214940 -0.163737 10.507787 -5.458805 0.011101 10.287917 -8.426044 -23.528211 3.900941 1.410025 -57.073303 -7.704612 8.049194 3.599052 -8.435832 10.757490 -9.491054 -17.898390 -17.832864 22.021470 -1.571971 3.559395 53.115847 10.318963 15.369186 0.086753 18.538165 17.195828 18.310214 12.221698 -5.421799 
0.003468 0.461249 1.006914 172.529605 0.307301 86.625159 5.915216 3.376097 5.871477 -5.321552 -2.185678 -0.689474 -1.870958 9.406391 -4.506001 0.000000 -0.000000 0.000000 -4.736152 -2.957327 1.635172 2.538779 1.655206 5.993763 5.698249 -4.432923 -6.058386 0.000000 -0.000000 0.000000 -2.098960 -0.117678 4.602985 0.658437 -2.333340 3.989825 1.281794 0.043835 2.337389 -0.445912 10.017192 -6.151065 -0.087043 9.931103 -9.647975 -24.382536 6.379545 1.755009 -55.697571 -4.624231 7.353074 2.773328 -10.794692 10.354346 -8.932779 -18.431839 -18.824713 22.798666 -4.116987 3.371761 51.463297 6.751206 14.762590 0.458981 21.157224 16.186483 16.457919 13.018225 -6.883229 
0.003213 0.464462 1.006745 172.695918 0.413500 86.668532 5.986963 3.242996 5.972323 -5.336487 -2.472826 -0.612182 -1.944874 9.796213 -4.727434 0.000000 -0.000000 0.000000 -4.643128 -2.810954 1.883804 2.580233 1.864174 5.833693 5.888527 -4.871530 -6.205571 0.000000 -0.000000 0.000000 -2.254273 -0.264400 4.550500 0.664271 -2.338434 3.903801 1.266825 -0.215638 2.602337 -0.673402 9.447812 -6.811628 -0.131430 9.613433 -11.016529 -24.771537 9.165271 1.955548 -54.864090 -1.738230 6.376774 2.271522 -12.565818 9.973857 -8.920202 -18.782780 -19.852901 23.184565 -6.786628 2.949290 50.567534 3.631382 14.012976 0.131778 21.943614 15.381059 16.245038 12.881448 -6.995332 
